<?xml version="1.0" ?><svg style="enable-background:new 0 0 48 48;" version="1.1" viewBox="0 0 48 48" xml:space="preserve" xmlns="http://www.w3.org/2000/svg" xmlns:xlink="http://www.w3.org/1999/xlink"><style type="text/css">
	.st0{display:none;}
	.st1{fill:none;stroke:#303030;stroke-width:0.7;stroke-linecap:round;stroke-linejoin:round;stroke-miterlimit:10;}
	.st2{fill:#303030;}
</style><g class="st0" id="Padding__x26__Artboard"/><g id="Icons"><g><path class="st1" d="M30.40289,35.48264H17.59711c-1.32397,0-2.39726-1.07329-2.39726-2.39726v-8.94721    c0-1.32397,1.07329-2.39726,2.39726-2.39726h12.80579c1.32397,0,2.39726,1.07329,2.39726,2.39726v8.94721    C32.80016,34.40935,31.72687,35.48264,30.40289,35.48264z"/><line class="st1" x1="17.09956" x2="17.09956" y1="30.75305" y2="26.7138"/><path class="st1" d="M17.09956,24.88412c0-0.82396,0.66795-1.49191,1.49191-1.49191"/><g><path class="st1" d="M28.08499,21.73736v-3.38c0-2.25-1.83-4.09-4.08-4.09c-2.26,0-4.09,1.84-4.09,4.09v3.38 M18.16499,21.73736     v-3.38c0-3.22,2.62-5.84,5.83-5.84c3.22,0,5.84,2.62,5.84,5.84v3.38"/></g></g></g></svg>